# xmcd
#
# Track frame offsets:
#	150
#	14057
#	24495
#	34592
#	50420
#	67032
#	76377
#	88280
#	99622
#	112067
#	123427
#	138772
#	157655
#	170402
#	185837
#
# Disc length: 2629 seconds
#
# Revision: 1
# Processed by: cddbd v1.5PL3 Copyright (c) Steve Scherf et al.
# Submitted via: audiograbber 1.83.01
#
DISCID=c90a430f
DTITLE=Various Artist - On The Road Especially For Truckers!! Vol. 6
DYEAR=2003
DGENRE=Country
TTITLE0=Dixie Aces - Who Did You Call Darling
TTITLE1=Pleasure - It Doesn't Matter Anymore
TTITLE2=Roland Konings and That's It - Sign Of The Times
TTITLE3=Roller Coasters - Brown Eyed Girl
TTITLE4=Dixie Aces - No More Running Around
TTITLE5=Ed Beerens - Jump Up Again
TTITLE6=Johnny Tyrone - Lady Of Spain
TTITLE7=The Black Devils - Pretend
TTITLE8=Danny Fabry - From A Jack To A King
TTITLE9=Roland Konings - Sway
TTITLE10=Dixie Aces - Carmelita
TTITLE11=Roller Coasters - Nights In White Satin
TTITLE12=Roland Konings - Something Stupid
TTITLE13=Andy - I'm Calling
TTITLE14=Fashion - Cry To Me
EXTD=
EXTT0=
EXTT1=
EXTT2=
EXTT3=
EXTT4=
EXTT5=
EXTT6=
EXTT7=
EXTT8=
EXTT9=
EXTT10=
EXTT11=
EXTT12=
EXTT13=
EXTT14=
PLAYORDER=
